<svg width="120" height="80" viewBox="0 0 120 80" fill="none" xmlns="http://www.w3.org/2000/svg">
  <!-- Car Body -->
  <path d="M15 45h90c2.76 0 5 2.24 5 5v15c0 2.76-2.24 5-5 5H15c-2.76 0-5-2.24-5-5V50c0-2.76 2.24-5 5-5z" fill="#3B82F6"/>
  
  <!-- Car Hood -->
  <path d="M95 45h10c2.76 0 5 2.24 5 5v15c0 2.76-2.24 5-5 5h-10V45z" fill="#2563EB"/>
  
  <!-- Car Roof -->
  <path d="M25 35c0-2.76 2.24-5 5-5h60c2.76 0 5 2.24 5 5v10H25V35z" fill="#1E40AF"/>
  
  <!-- Windows -->
  <rect x="30" y="32" width="25" height="10" rx="2" fill="#E0F2FE" opacity="0.9"/>
  <rect x="65" y="32" width="25" height="10" rx="2" fill="#E0F2FE" opacity="0.9"/>
  
  <!-- Front Grille -->
  <rect x="105" y="48" width="3" height="8" rx="1" fill="#1E40AF"/>
  <rect x="105" y="50" width="5" height="1" fill="#60A5FA" opacity="0.8"/>
  <rect x="105" y="52" width="5" height="1" fill="#60A5FA" opacity="0.8"/>
  <rect x="105" y="54" width="5" height="1" fill="#60A5FA" opacity="0.8"/>
  
  <!-- Front Lights -->
  <ellipse cx="108" cy="52" rx="3" ry="2" fill="#FEF3C7"/>
  <ellipse cx="108" cy="52" rx="2" ry="1" fill="#F59E0B"/>
  
  <!-- Wheels -->
  <circle cx="30" cy="60" r="8" fill="#374151"/>
  <circle cx="30" cy="60" r="5" fill="#6B7280"/>
  <circle cx="30" cy="60" r="2" fill="#9CA3AF"/>
  <circle cx="90" cy="60" r="8" fill="#374151"/>
  <circle cx="90" cy="60" r="5" fill="#6B7280"/>
  <circle cx="90" cy="60" r="2" fill="#9CA3AF"/>
  
  <!-- Side Details -->
  <path d="M20 50h70" stroke="#1E40AF" stroke-width="1" opacity="0.5"/>
  <rect x="35" y="48" width="15" height="2" rx="1" fill="#60A5FA" opacity="0.6"/>
  
  <!-- Motion Lines -->
  <path d="M5 25h8M8 30h6M5 35h10" stroke="#3B82F6" stroke-width="2" stroke-linecap="round" opacity="0.6"/>
</svg>